<?xml version="1.0" encoding="UTF-8" standalone="no"?>
<!-- Created with Inkscape (http://www.inkscape.org/) -->

<svg
   width="210mm"
   height="297mm"
   viewBox="0 0 210 297"
   version="1.1"
   id="svg1"
   xml:space="preserve"
   inkscape:version="1.4.2 (f4327f4, 2025-05-13)"
   sodipodi:docname="svg.svg"
   xmlns:inkscape="http://www.inkscape.org/namespaces/inkscape"
   xmlns:sodipodi="http://sodipodi.sourceforge.net/DTD/sodipodi-0.dtd"
   xmlns="http://www.w3.org/2000/svg"
   xmlns:svg="http://www.w3.org/2000/svg"><sodipodi:namedview
     id="namedview1"
     pagecolor="#ffffff"
     bordercolor="#000000"
     borderopacity="0.25"
     inkscape:showpageshadow="2"
     inkscape:pageopacity="0.0"
     inkscape:pagecheckerboard="0"
     inkscape:deskcolor="#d1d1d1"
     inkscape:document-units="mm"
     inkscape:lockguides="false"
     inkscape:zoom="0.5"
     inkscape:cx="-179"
     inkscape:cy="351"
     inkscape:window-width="1920"
     inkscape:window-height="1111"
     inkscape:window-x="-9"
     inkscape:window-y="-9"
     inkscape:window-maximized="1"
     inkscape:current-layer="layer1" /><defs
     id="defs1" /><g
     inkscape:label="Layer 1"
     inkscape:groupmode="layer"
     id="layer1"><path
       style="fill:#333333;stroke-width:0.264583"
       d="m 77.828589,103.52467 c 11.012606,6.35461 11.012606,6.35461 11.012606,6.35461 l 0.123389,29.76797 -11.043455,8.39056 z"
       id="path1" /><path
       style="fill:#1a1a1a;stroke-width:0.264583"
       d="m 77.944267,148.04552 5.375201,4.13359 11.429047,-8.52166 -5.78237,-4.01016 z"
       id="path2" /><path
       style="fill:#999999;stroke-width:0.264583"
       d="m 88.84373,109.87366 3.561998,-2.80009 0.01654,29.88138 13.146482,-10.21953 13.2457,10.05416 0.13229,-29.86484 3.43959,3.02617 -0.0662,29.6168 -5.63893,4.03489 -10.96367,-8.53281 -10.978141,8.58655 -5.772256,-4.00905 z"
       id="path3" /><path
       style="fill:#1a1a1a;stroke-width:0.264583"
       d="m 105.71551,135.07186 -10.976075,8.58448 10.965665,7.80363 10.97392,-7.85188 z"
       id="path4" /><path
       style="fill:#000000;stroke-width:0.264583"
       d="m 116.68228,143.60364 5.6379,-4.0349 11.20851,8.63472 -5.5365,4.24615 z"
       id="path5" /><path
       style="fill:#666666;stroke-width:0.264583"
       d="m 77.827425,103.52288 11.01046,6.34494 3.572225,-2.78879 z"
       id="path6" /><path
       style="fill:#333333;stroke-width:0.264583"
       d="m 122.3896,109.94967 -0.0653,29.61804 11.20449,8.63616 0.006,-44.55675 z"
       id="path7" /><path
       style="fill:#666666;stroke-width:0.264583"
       d="m 118.94778,106.92577 14.58675,-3.27572 -11.14346,6.29377 z"
       id="path8" /><path
       style="fill:#666666;stroke-width:0.264583"
       d="m 105.7051,159.23584 c 0,0 -1.66041,1.8475 0,0 z"
       id="path9" /><path
       style="fill:#1a1a1a;stroke-width:0.264583"
       d="m 60.002538,153.88 44.003512,1.01699 1.49655,2.50941 1.50069,-2.52595 43.99524,-0.99632 z"
       id="path10" /></g></svg>
